<?xml version="1.0" standalone="no"?>
<!DOCTYPE svg PUBLIC "-//W3C//DTD SVG 20010904//EN"
 "http://www.w3.org/TR/2001/REC-SVG-20010904/DTD/svg10.dtd">
<svg version="1.0" xmlns="http://www.w3.org/2000/svg"
 width="300.000000pt" height="300.000000pt" viewBox="0 0 300.000000 300.000000"
 preserveAspectRatio="xMidYMid meet">
<metadata>
Created by potrace 1.11, written by Peter Selinger 2001-2013
</metadata>
<g transform="translate(0.000000,300.000000) scale(0.100000,-0.100000)"
fill="#000000" stroke="none">
<path d="M1275 2775 c-14 -13 -25 -29 -25 -35 0 -20 20 -50 34 -50 12 0 12 -9
-1 -57 -13 -51 -21 -109 -22 -170 -1 -27 -23 -30 -63 -9 -16 8 -28 11 -28 6 0
-14 35 -30 64 -30 22 0 26 -5 27 -27 1 -73 10 -161 20 -196 6 -22 9 -40 7 -41
-47 -22 -63 -38 -66 -65 -2 -19 -10 -32 -23 -36 -10 -4 -19 -11 -19 -16 0 -5
-4 -9 -10 -9 -11 0 -47 -29 -100 -80 -109 -108 -183 -267 -206 -445 -18 -140
1 -324 43 -410 21 -43 97 -154 105 -155 7 0 63 -35 101 -62 14 -10 19 -32 23
-103 3 -49 7 -95 9 -102 2 -6 1 -14 -2 -17 -3 -3 -5 -54 -4 -113 0 -63 -5
-129 -13 -158 -10 -37 -10 -52 -2 -57 8 -6 8 -8 -1 -8 -6 0 -10 -8 -8 -18 6
-31 35 -96 47 -103 6 -4 7 -12 2 -20 -5 -8 -9 -18 -11 -24 -1 -5 -4 -21 -7
-35 -11 -47 -14 -89 -9 -110 5 -17 13 -20 64 -20 33 0 59 3 60 8 0 4 2 25 5
46 7 67 27 70 22 3 l-4 -57 342 0 c265 0 343 3 346 13 2 6 4 29 3 49 -1 50 12
38 21 -17 l6 -45 73 0 72 0 -4 38 c-5 49 -21 99 -44 140 -19 33 -19 33 3 75
68 131 -14 307 -143 309 -67 1 -88 -2 -103 -17 -16 -17 -52 -20 -60 -6 -4 5
-29 15 -56 22 -28 7 -50 18 -51 23 0 6 -3 20 -5 31 -4 19 -13 116 -18 195 -4
62 18 91 107 134 31 15 63 33 70 39 6 7 30 25 51 41 74 55 163 163 171 206 1
3 5 28 10 55 4 28 10 57 12 65 12 43 10 293 -3 365 -16 97 -34 167 -45 180 -5
5 -9 15 -9 23 0 8 -13 34 -30 59 -16 24 -30 46 -30 49 0 9 -54 56 -90 78 -35
22 -126 53 -184 63 -17 3 -85 6 -151 7 l-120 1 -17 36 c-9 20 -19 47 -21 60
-2 13 -7 31 -10 39 -3 8 -8 29 -11 45 -4 17 -9 40 -11 53 -5 20 3 27 27 23 10
-1 48 50 48 65 0 17 -29 46 -40 39 -5 -3 -11 -1 -15 5 -3 5 -15 10 -25 10 -17
0 -19 6 -16 48 2 26 4 54 5 63 1 9 12 20 25 23 46 11 39 88 -9 106 -39 15 -54
12 -80 -15z m126 -264 c23 -19 24 -19 5 -40 -11 -12 -29 -21 -41 -21 -18 0
-21 6 -23 40 -2 34 0 40 16 40 11 0 30 -9 43 -19z"/>
<path d="M1215 2529 c-12 -6 -27 -20 -34 -32 -14 -22 -14 -22 11 1 13 12 29
22 36 22 6 0 14 5 17 10 8 12 -3 12 -30 -1z"/>
</g>
</svg>
